<?xml version="1.0" encoding="UTF-8" standalone="no"?>
<!-- Created with Inkscape (http://www.inkscape.org/) -->

<svg
   xmlns:dc="http://purl.org/dc/elements/1.1/"
   xmlns:cc="http://creativecommons.org/ns#"
   xmlns:rdf="http://www.w3.org/1999/02/22-rdf-syntax-ns#"
   xmlns:svg="http://www.w3.org/2000/svg"
   xmlns="http://www.w3.org/2000/svg"
   xmlns:sodipodi="http://sodipodi.sourceforge.net/DTD/sodipodi-0.dtd"
   xmlns:inkscape="http://www.inkscape.org/namespaces/inkscape"
   width="1920"
   height="1080"
   viewBox="0 0 507.99999 285.75001"
   version="1.1"
   id="svg8"
   inkscape:version="0.92.4 (5da689c313, 2019-01-14)"
   sodipodi:docname="cd-logo.svg"
   inkscape:export-filename=".\cd-logo.png"
   inkscape:export-xdpi="96"
   inkscape:export-ydpi="96">
  <defs
     id="defs2" />
  <sodipodi:namedview
     id="base"
     pagecolor="#ffffff"
     bordercolor="#666666"
     borderopacity="1.0"
     inkscape:pageopacity="0"
     inkscape:pageshadow="2"
     inkscape:zoom="0.45254834"
     inkscape:cx="137.48121"
     inkscape:cy="576.08255"
     inkscape:document-units="px"
     inkscape:current-layer="layer1"
     showgrid="false"
     units="px"
     inkscape:window-width="1920"
     inkscape:window-height="1137"
     inkscape:window-x="-8"
     inkscape:window-y="263"
     inkscape:window-maximized="1"
     inkscape:snap-bbox="true"
     inkscape:snap-bbox-midpoints="true"
     inkscape:snap-object-midpoints="true"
     showguides="true"
     inkscape:guide-bbox="true"
     inkscape:snap-center="true"
     inkscape:bbox-nodes="true"
     inkscape:snap-page="true"
     scale-x="0.06458">
    <sodipodi:guide
       position="31.75,0"
       orientation="1,0"
       id="guide4929"
       inkscape:locked="false"
       inkscape:label=""
       inkscape:color="rgb(0,0,255)" />
    <sodipodi:guide
       position="476.25,-7.8753666e-07"
       orientation="1,0"
       id="guide4931"
       inkscape:locked="false"
       inkscape:label=""
       inkscape:color="rgb(0,0,255)" />
    <sodipodi:guide
       position="225.10991,88.907634"
       orientation="1,0"
       id="guide4933"
       inkscape:locked="false" />
  </sodipodi:namedview>
  <metadata
     id="metadata5">
    <rdf:RDF>
      <cc:Work
         rdf:about="">
        <dc:format>image/svg+xml</dc:format>
        <dc:type
           rdf:resource="http://purl.org/dc/dcmitype/StillImage" />
        <dc:title></dc:title>
      </cc:Work>
    </rdf:RDF>
  </metadata>
  <g
     inkscape:label="Layer 1"
     inkscape:groupmode="layer"
     id="layer1"
     transform="translate(0,-11.249983)">
    <g
       id="g4850"
       transform="matrix(1.4307461,0,0,1.4310112,-108.30782,-39.580551)"
       style="stroke-width:0.69887125">
      <path
         id="path921-4"
         transform="matrix(0.26458333,0,0,0.26458333,0,11.249983)"
         d="m 656.0918,380.66016 v 18.44336 a 51.897112,51.897112 0 0 0 -12.64649,5.28125 l -13.07031,-13.07422 -18.86328,18.86718 13.05664,13.05665 a 51.897112,51.897112 0 0 0 -5.22852,12.65624 h -18.48242 v 26.68165 h 18.44336 a 51.897112,51.897112 0 0 0 5.28125,12.64257 l -13.07031,13.07032 18.86328,18.86523 13.06055,-13.05859 a 51.897112,51.897112 0 0 0 12.65625,5.22851 v 18.48242 h 26.67773 v -18.44335 a 51.897112,51.897112 0 0 0 12.64453,-5.28126 l 13.07227,13.07227 18.86328,-18.86523 -13.06055,-13.06055 a 51.897112,51.897112 0 0 0 5.22852,-12.65234 H 738 v -26.68165 h -18.44336 a 51.897112,51.897112 0 0 0 -5.27734,-12.64453 l 13.07031,-13.06836 -18.86328,-18.86718 -13.06055,13.06054 a 51.897112,51.897112 0 0 0 -12.65625,-5.22851 v -18.48242 z m 13.33789,39.02343 a 29.546962,29.546962 0 0 1 29.54687,29.54688 29.546962,29.546962 0 0 1 -29.54687,29.54687 29.546962,29.546962 0 0 1 -29.54883,-29.54687 29.546962,29.546962 0 0 1 29.54883,-29.54688 z"
         style="opacity:1;vector-effect:none;fill:#4a6da7;fill-opacity:1;stroke:none;stroke-width:0.26414028;stroke-linecap:round;stroke-linejoin:round;stroke-miterlimit:4;stroke-dasharray:none;stroke-dashoffset:0;stroke-opacity:1;paint-order:normal"
         inkscape:connector-curvature="0" />
      <g
         id="g919"
         style="stroke-width:0.69887125">
        <rect
           style="opacity:1;vector-effect:none;fill:#848484;fill-opacity:1;stroke:none;stroke-width:0.06988711;stroke-linecap:round;stroke-linejoin:round;stroke-miterlimit:4;stroke-dasharray:none;stroke-dashoffset:0;stroke-opacity:1;paint-order:normal"
           id="rect840"
           width="355.05951"
           height="199.68398"
           x="75.700241"
           y="35.52071" />
        <rect
           style="opacity:1;fill:#ffffff;fill-opacity:1;stroke:#ffffff;stroke-width:0.06988712;stroke-linecap:round;stroke-linejoin:round;stroke-miterlimit:4;stroke-dasharray:none;stroke-opacity:1;paint-order:normal"
           id="rect831"
           width="40.065475"
           height="24.001488"
           x="119.44048"
           y="111.22469"
           rx="0"
           ry="0" />
        <rect
           style="opacity:1;vector-effect:none;fill:#4a6da7;fill-opacity:1;stroke:none;stroke-width:0.06988711;stroke-linecap:round;stroke-linejoin:round;stroke-miterlimit:4;stroke-dasharray:none;stroke-dashoffset:0;stroke-opacity:1;paint-order:normal"
           id="rect833"
           width="40.065475"
           height="7.1815553"
           x="119.44048"
           y="104.04314" />
        <rect
           style="opacity:1;vector-effect:none;fill:#c7c7c6;fill-opacity:1;stroke:none;stroke-width:0.06988711;stroke-linecap:round;stroke-linejoin:round;stroke-miterlimit:4;stroke-dasharray:none;stroke-dashoffset:0;stroke-opacity:1;paint-order:normal"
           id="rect865"
           width="34.785275"
           height="17.826134"
           x="122.08057"
           y="113.13553" />
        <rect
           style="opacity:1;vector-effect:none;fill:#fbfbfa;fill-opacity:1;stroke:none;stroke-width:0.06988711;stroke-linecap:round;stroke-linejoin:round;stroke-miterlimit:4;stroke-dasharray:none;stroke-dashoffset:0;stroke-opacity:1;paint-order:normal"
           id="rect869"
           width="2.375845"
           height="2.375845"
           x="121.70833"
           y="106.44599" />
        <rect
           style="opacity:1;vector-effect:none;fill:#fbfbfa;fill-opacity:1;stroke:none;stroke-width:0.06988711;stroke-linecap:round;stroke-linejoin:round;stroke-miterlimit:4;stroke-dasharray:none;stroke-dashoffset:0;stroke-opacity:1;paint-order:normal"
           id="rect869-3"
           width="2.375845"
           height="2.375845"
           x="126.34123"
           y="106.44599" />
        <rect
           style="opacity:1;vector-effect:none;fill:#fbfbfa;fill-opacity:1;stroke:none;stroke-width:0.06988711;stroke-linecap:round;stroke-linejoin:round;stroke-miterlimit:4;stroke-dasharray:none;stroke-dashoffset:0;stroke-opacity:1;paint-order:normal"
           id="rect869-8"
           width="2.375845"
           height="2.375845"
           x="130.97414"
           y="106.44599" />
      </g>
      <path
         transform="matrix(0.26458333,0,0,0.26458333,0,11.249983)"
         id="rect826"
         d="M 393.57227,286.42773 C 380.51369,286.42773 370,296.94143 370,310 v 255 c 0,13.05857 10.51369,23.57227 23.57227,23.57227 h 384.28515 c 13.05857,0 23.57031,-10.5137 23.57031,-23.57227 V 310 c 0,-13.05857 -10.51174,-23.57227 -23.57031,-23.57227 z m 6.07031,32.14454 H 771.78516 V 522.14258 H 399.64258 Z"
         style="opacity:1;fill:#ffffff;fill-opacity:1;stroke:none;stroke-width:0.26414031;stroke-linecap:round;stroke-linejoin:round;stroke-miterlimit:4;stroke-dasharray:none;stroke-opacity:1;paint-order:normal"
         inkscape:connector-curvature="0" />
      <path
         id="path921"
         transform="matrix(0.26458333,0,0,0.26458333,0,11.249983)"
         d="m 552.80664,425.92578 v 11.17383 a 31.440997,31.440997 0 0 0 -7.66211,3.19922 l -7.91797,-7.91992 -11.42773,11.42968 7.91015,7.91016 a 31.440997,31.440997 0 0 0 -3.16796,7.66797 h -11.19727 v 16.16406 h 11.17383 a 31.440997,31.440997 0 0 0 3.19922,7.66016 l -7.91797,7.91797 11.42773,11.42968 7.91211,-7.91211 a 31.440997,31.440997 0 0 0 7.66797,3.16797 v 11.19727 h 16.16211 v -11.17383 a 31.440997,31.440997 0 0 0 7.66016,-3.19922 l 7.91992,7.91992 11.42773,-11.42968 -7.91211,-7.91211 a 31.440997,31.440997 0 0 0 3.16797,-7.66602 h 11.19727 v -16.16406 h -11.17383 a 31.440997,31.440997 0 0 0 -3.19727,-7.66016 l 7.91797,-7.91797 -11.42773,-11.42968 -7.91211,7.91211 a 31.440997,31.440997 0 0 0 -7.66797,-3.16797 v -11.19727 z m 7.32227,27.40039 a 14.142136,14.142136 0 0 1 14.14257,14.14258 14.142136,14.142136 0 0 1 -14.14257,14.14258 14.142136,14.142136 0 0 1 -14.14063,-14.14258 14.142136,14.142136 0 0 1 14.14063,-14.14258 z"
         style="opacity:1;vector-effect:none;fill:#45494e;fill-opacity:1;stroke:none;stroke-width:0.26414028;stroke-linecap:round;stroke-linejoin:round;stroke-miterlimit:4;stroke-dasharray:none;stroke-dashoffset:0;stroke-opacity:1;paint-order:normal"
         inkscape:connector-curvature="0" />
      <path
         inkscape:connector-curvature="0"
         id="rect4758"
         d="m 145.18545,170.79374 c -1.40538,0 -2.72529,1.07395 -2.95951,2.40813 l -1.5105,8.60205 c -0.008,0.0473 -0.0117,0.0935 -0.0171,0.14005 h -11.57242 v 6.84661 h 51.68831 v -6.84661 h -11.57242 c -0.005,-0.0466 -0.009,-0.0928 -0.0171,-0.14005 l -1.50999,-8.60205 c -0.2342,-1.33418 -1.55412,-2.40813 -2.95951,-2.40813 H 162.58077 147.36 Z"
         style="opacity:1;vector-effect:none;fill:#ffffff;fill-opacity:1;stroke:none;stroke-width:0.06988712;stroke-linecap:round;stroke-linejoin:round;stroke-miterlimit:4;stroke-dasharray:none;stroke-dashoffset:0;stroke-opacity:1;paint-order:normal" />
    </g>
    <rect
       style="opacity:1;fill:#4a6da7;fill-opacity:1;stroke:none;stroke-width:0.09999997;stroke-linecap:round;stroke-linejoin:round;stroke-miterlimit:4;stroke-dasharray:none;stroke-opacity:1;paint-order:normal"
       id="rect835-2"
       width="508"
       height="15.875"
       x="0"
       y="281.125" />
    <g
       id="g4939"
       transform="translate(0,-7.3312356)">
      <text
         transform="scale(0.99960187,1.0003983)"
         id="text4869"
         y="138.46225"
         x="223.30858"
         style="font-style:normal;font-weight:normal;font-size:53.71880341px;line-height:1.25;font-family:sans-serif;letter-spacing:0px;word-spacing:0px;opacity:1;vector-effect:none;fill:#ffffff;fill-opacity:1;stroke:none;stroke-width:0.10000003;stroke-linecap:round;stroke-linejoin:round;stroke-miterlimit:4;stroke-dasharray:none;stroke-dashoffset:0;stroke-opacity:1;paint-order:normal;"
         xml:space="preserve"><tspan
           style="font-style:normal;font-variant:normal;font-weight:bold;font-stretch:normal;font-family:'Segoe UI';-inkscape-font-specification:'Segoe UI';vector-effect:none;fill:#ffffff;fill-opacity:1;stroke:none;stroke-width:0.10000003;stroke-linecap:round;stroke-linejoin:round;stroke-miterlimit:4;stroke-dasharray:none;stroke-dashoffset:0;stroke-opacity:1;paint-order:normal;"
           y="138.46225"
           x="223.30858"
           id="tspan4867"
           sodipodi:role="line">Computer</tspan></text>
      <text
         transform="scale(0.99969453,1.0003056)"
         id="text4869-8"
         y="197.68684"
         x="220.78041"
         style="font-style:normal;font-weight:normal;font-size:48.45823288px;line-height:1.25;font-family:sans-serif;letter-spacing:0px;word-spacing:0px;opacity:1;vector-effect:none;fill:#ffffff;fill-opacity:1;stroke:none;stroke-width:0.10000001;stroke-linecap:round;stroke-linejoin:round;stroke-miterlimit:4;stroke-dasharray:none;stroke-dashoffset:0;stroke-opacity:1;paint-order:normal;"
         xml:space="preserve"><tspan
           style="font-style:normal;font-variant:normal;font-weight:normal;font-stretch:normal;font-family:'Segoe UI';-inkscape-font-specification:'Segoe UI';vector-effect:none;fill:#ffffff;fill-opacity:1;stroke:none;stroke-width:0.10000001;stroke-linecap:round;stroke-linejoin:round;stroke-miterlimit:4;stroke-dasharray:none;stroke-dashoffset:0;stroke-opacity:1;paint-order:normal;"
           y="197.68684"
           x="220.78041"
           id="tspan4867-1"
           sodipodi:role="line">Department</tspan></text>
    </g>
  </g>
</svg>
